<svg width="22" height="22" viewBox="0 0 22 22" fill="none"
    xmlns="http://www.w3.org/2000/svg">
    <path d="M19.5556 0H2.44444C1.1 0 0 1.1 0 2.44444V19.5556C0 20.9 1.1 22 2.44444 22H19.5556C20.9 22 22 20.9 22 19.5556V2.44444C22 1.1 20.9 0 19.5556 0ZM13.4444 14.0556H13.75V19.5556H8.25V14.0556H8.55556C9.22778 14.0556 9.77778 13.5056 9.77778 12.8333V2.44444H12.2222V12.8333C12.2222 13.5056 12.7722 14.0556 13.4444 14.0556ZM2.44444 2.44444H4.88889V12.8333C4.88889 13.5056 5.43889 14.0556 6.11111 14.0556H6.41667V19.5556H2.44444V2.44444ZM19.5556 19.5556H15.5833V14.0556H15.8889C16.5611 14.0556 17.1111 13.5056 17.1111 12.8333V2.44444H19.5556V19.5556Z" fill="#5D83BB"/>
</svg>
