<svg width="28" height="18" viewBox="0 0 28 18" fill="none" xmlns="http://www.w3.org/2000/svg">
<path d="M15.2245 0.299999V13.5H12.7245V6.62L12.8645 2.76H12.8245L9.16453 13.5H6.90453L3.26453 2.76H3.22453L3.36453 6.62V13.5H0.864531V0.299999H4.86453L7.24453 7.5L8.08453 10.48H8.12453L8.98453 7.52L11.3445 0.299999H15.2245ZM27.7775 3.5L23.7375 14.12C23.4175 15.0267 23.0575 15.7467 22.6575 16.28C22.2708 16.8133 21.8175 17.2 21.2975 17.44C20.7908 17.68 20.1842 17.8 19.4775 17.8C18.9575 17.8 18.4775 17.7333 18.0375 17.6C17.6108 17.48 17.2375 17.32 16.9175 17.12L17.4975 15.14C17.7508 15.34 18.0175 15.48 18.2975 15.56C18.5775 15.6533 18.8975 15.7 19.2575 15.7C19.6308 15.7 19.9508 15.62 20.2175 15.46C20.4975 15.3 20.7308 14.98 20.9175 14.5L21.2575 13.64L20.1575 11.04L17.0975 3.5H20.1375L22.0375 9.5L22.5575 11.5L23.1775 9.38L24.9975 3.5H27.7775Z" fill="black"/>
</svg>
