<svg width="122" height="40" viewBox="0 0 122 40" fill="none"
    xmlns="http://www.w3.org/2000/svg">
    <path d="M57.9631 12.32H60.7631C60.7631 17.24 57.6231 20.58 52.1031 22L51.1031 19.92C55.6431 18.78 57.9631 16.42 57.9631 13.64V12.32ZM52.1631 12.32H59.6831V14.4H52.1631V12.32ZM63.7231 11.26H66.4031V21.58H63.7231V11.26ZM54.1431 22.36H66.4031V29.58H54.1431V22.36ZM63.7831 24.46H56.7631V27.48H63.7831V24.46ZM81.7216 11.26H84.4016V29.78H81.7216V11.26ZM83.2016 18.18H86.4616V20.38H83.2016V18.18ZM71.6416 12.72H73.5616V15.84C73.5616 19.7 73.1216 23.68 70.7016 25.68L68.9616 23.84C71.3216 21.98 71.6416 18.78 71.6416 15.84V12.72ZM72.2616 12.72H74.1216V15.84C74.1216 18.66 74.4216 22.02 76.8216 23.98L75.3816 25.94C72.6616 23.88 72.2616 19.52 72.2616 15.84V12.72ZM76.6416 12.72H78.5216V15.84C78.5216 19.56 78.1016 23.9 75.3816 25.94L73.9616 23.98C76.3416 22.04 76.6416 18.7 76.6416 15.84V12.72ZM77.2616 12.72H79.1616V15.84C79.1616 18.8 79.4816 22 81.8416 23.84L80.2216 25.78C77.6616 23.76 77.2616 19.7 77.2616 15.84V12.72ZM100.56 11.26H103.24V29.78H100.56V11.26ZM88.26 12.96H98.66V15.08H88.26V12.96ZM88.02 25.56L87.76 23.38C91.1 23.38 95.56 23.32 99.38 22.86L99.52 24.8C95.62 25.46 91.36 25.54 88.02 25.56ZM89.86 14.62H92.44V23.96H89.86V14.62ZM94.48 14.62H97.06V23.96H94.48V14.62ZM118.918 11.26H121.598V21.64H118.918V11.26ZM107.258 12.32H109.898V19.96H107.258V12.32ZM107.258 18.56H108.858C112.078 18.56 114.698 18.38 117.418 17.8L117.738 19.94C114.918 20.56 112.178 20.76 108.858 20.76H107.258V18.56ZM109.278 22.42H121.598V29.58H109.278V22.42ZM118.978 24.5H111.878V27.48H118.978V24.5Z" fill="black"/>
    <circle cx="20" cy="20" r="20" fill="#C4C4C4"/>
    <g clip-path="url(#clip0_120_1453)">
        <path d="M20 20C22.21 20 24 18.21 24 16C24 13.79 22.21 12 20 12C17.79 12 16 13.79 16 16C16 18.21 17.79 20 20 20ZM20 22C17.33 22 12 23.34 12 26V27C12 27.55 12.45 28 13 28H27C27.55 28 28 27.55 28 27V26C28 23.34 22.67 22 20 22Z" fill="#161616"/>
    </g>
    <defs>
        <clipPath id="clip0_120_1453">
            <rect width="24" height="24" fill="white" transform="translate(8 8)"/>
        </clipPath>
    </defs>
</svg>
