<svg width="36" height="36" viewBox="0 0 36 36" fill="none"
    xmlns="http://www.w3.org/2000/svg">
    <g clip-path="url(#clip0_120_1443)">
        <path d="M23.2509 21H22.0659L21.6459 20.595C23.4459 18.495 24.3759 15.63 23.8659 12.585C23.1609 8.41502 19.6809 5.08502 15.4809 4.57502C9.13594 3.79502 3.79594 9.13502 4.57594 15.48C5.08594 19.68 8.41594 23.16 12.5859 23.865C15.6309 24.375 18.4959 23.445 20.5959 21.645L21.0009 22.065V23.25L27.3759 29.625C27.9909 30.24 28.9959 30.24 29.6109 29.625C30.2259 29.01 30.2259 28.005 29.6109 27.39L23.2509 21ZM14.2509 21C10.5159 21 7.50094 17.985 7.50094 14.25C7.50094 10.515 10.5159 7.50002 14.2509 7.50002C17.9859 7.50002 21.0009 10.515 21.0009 14.25C21.0009 17.985 17.9859 21 14.2509 21Z" fill="#161616"/>
    </g>
    <defs>
        <clipPath id="clip0_120_1443">
            <rect width="36" height="36" fill="white"/>
        </clipPath>
    </defs>
</svg>
