<svg width="35" height="40" viewBox="0 0 35 40" fill="none"
    xmlns="http://www.w3.org/2000/svg">
    <g clip-path="url(#clip0_120_1435)">
        <path d="M10.8069 24.6976H13.1257L13.1257 32.9301C13.1257 33.8357 13.7819 34.5766 14.584 34.5766H20.4173C21.2194 34.5766 21.8757 33.8357 21.8757 32.9301V24.6976H24.1944C25.4923 24.6976 26.1486 22.9193 25.2298 21.882L18.5361 14.3246C17.9673 13.6824 17.0486 13.6824 16.4798 14.3246L9.78607 21.882C8.86732 22.9193 9.50898 24.6976 10.8069 24.6976ZM27.709 8.23251C27.709 7.32693 27.0527 6.58601 26.2507 6.58601L8.75065 6.58601C7.94857 6.58601 7.29232 7.32693 7.29232 8.23251C7.29232 9.13809 7.94857 9.87902 8.75065 9.87902L26.2507 9.87902C27.0527 9.87902 27.709 9.13809 27.709 8.23251Z" fill="#161616"/>
    </g>
    <defs>
        <clipPath id="clip0_120_1435">
            <rect width="35" height="39.5161" fill="white" transform="matrix(-1 0 0 -1 35 39.5161)"/>
        </clipPath>
    </defs>
</svg>
